<?xml version="1.0" encoding="utf-8"?>
<!DOCTYPE xml>
<svg xmlns="http://www.w3.org/2000/svg" xmlns:xlink="http://www.w3.org/1999/xlink">
  <symbol id="viber" viewBox="0 0 40 40" fill="none" xmlns="http://www.w3.org/2000/svg">
    <rect width="40" height="40" rx="20" fill="#7360F2"/>
    <path d="M22.4327 9.67137C22.4652 9.54954 22.5215 9.43532 22.5983 9.33524C22.675 9.23516 22.7707 9.15118 22.8799 9.08811C22.9892 9.02503 23.1097 8.98409 23.2348 8.96763C23.3598 8.95117 23.4869 8.95951 23.6087 8.99217C25.3884 9.45651 27.0121 10.3869 28.3127 11.6874C29.6133 12.988 30.5437 14.6117 31.008 16.3914C31.0407 16.5133 31.049 16.6403 31.0325 16.7654C31.0161 16.8904 30.9751 17.011 30.9121 17.1202C30.849 17.2294 30.765 17.3251 30.6649 17.4018C30.5649 17.4786 30.4506 17.5349 30.3288 17.5675C30.2477 17.5887 30.1642 17.5996 30.0804 17.5998C29.8688 17.5998 29.6632 17.53 29.4955 17.4011C29.3277 17.2722 29.2072 17.0915 29.1528 16.887C28.7741 15.4342 28.0148 14.1087 26.9531 13.047C25.8915 11.9854 24.5659 11.2261 23.1131 10.8474C22.9911 10.8149 22.8768 10.7587 22.7766 10.6821C22.6764 10.6054 22.5922 10.5097 22.529 10.4004C22.4659 10.2912 22.4248 10.1706 22.4083 10.0455C22.3917 9.9204 22.4 9.79327 22.4327 9.67137ZM22.1531 14.6874C23.8079 15.129 24.8711 16.1922 25.3127 17.8471C25.3672 18.0515 25.4877 18.2322 25.6554 18.3611C25.8231 18.49 26.0288 18.5599 26.2403 18.5599C26.3242 18.5596 26.4076 18.5488 26.4887 18.5275C26.6106 18.4949 26.7248 18.4386 26.8249 18.3619C26.9249 18.2851 27.0089 18.1894 27.072 18.0802C27.1351 17.971 27.176 17.8504 27.1925 17.7254C27.2089 17.6003 27.2006 17.4733 27.1679 17.3514C26.5535 15.0522 24.9479 13.4466 22.6487 12.8322C22.4026 12.7665 22.1406 12.8012 21.9202 12.9287C21.6997 13.0562 21.539 13.266 21.4732 13.512C21.4075 13.758 21.4422 14.0201 21.5697 14.2405C21.6972 14.4609 21.907 14.6217 22.1531 14.6874ZM31.986 26.1295C31.7721 27.7556 30.9735 29.2481 29.7395 30.3285C28.5055 31.4088 26.9204 32.0029 25.2803 32C15.7521 32 8.00001 24.2479 8.00001 14.7198C7.99707 13.0798 8.59125 11.4947 9.67156 10.2607C10.7519 9.02669 12.2444 8.22813 13.8705 8.01416C14.2817 7.96395 14.6981 8.04807 15.0576 8.25397C15.417 8.45986 15.7002 8.77648 15.8649 9.15657L18.3994 14.8146V14.829C18.5255 15.12 18.5776 15.4376 18.551 15.7536C18.5244 16.0696 18.4199 16.3741 18.247 16.6398C18.2254 16.6722 18.2026 16.7022 18.1786 16.7322L15.6801 19.6939C16.579 21.5203 18.4894 23.4139 20.3398 24.3151L23.2607 21.8299C23.2894 21.8058 23.3194 21.7833 23.3507 21.7627C23.6162 21.5856 23.9218 21.4775 24.2396 21.4481C24.5575 21.4188 24.8776 21.4692 25.1711 21.5947L25.1867 21.6019L30.84 24.1351C31.2208 24.2992 31.5382 24.5822 31.7447 24.9417C31.9513 25.3012 32.036 25.7179 31.986 26.1295ZM30.0804 25.8895C30.0804 25.8895 30.072 25.8895 30.0672 25.8895L24.4271 23.3635L21.505 25.8487C21.4767 25.8727 21.4471 25.8952 21.4162 25.9159C21.1399 26.1003 20.8206 26.2098 20.4893 26.2337C20.158 26.2577 19.8262 26.1954 19.5262 26.0527C17.2786 24.9667 15.0381 22.7431 13.9509 20.5195C13.8069 20.2217 13.7423 19.8918 13.7634 19.5617C13.7844 19.2316 13.8903 18.9126 14.0709 18.6355C14.0913 18.6029 14.1141 18.572 14.1393 18.5431L16.6402 15.5778L14.1201 9.93778C14.1196 9.93299 14.1196 9.92816 14.1201 9.92338C12.9564 10.0752 11.8879 10.646 11.1148 11.5289C10.3417 12.4118 9.9169 13.5463 9.92004 14.7198C9.92449 18.7922 11.5442 22.6966 14.4239 25.5762C17.3035 28.4558 21.2079 30.0755 25.2803 30.08C26.4532 30.084 27.5873 29.6607 28.4708 28.8893C29.3542 28.1178 29.9264 27.051 30.0804 25.8883V25.8895Z" fill="white"/>
  </symbol>
  <symbol id="telegram" viewBox="0 0 40 40" fill="none" xmlns="http://www.w3.org/2000/svg">
    <rect width="40" height="40" rx="20" fill="#29A9EA"/>
    <path d="M31.6662 8.26258C31.5334 8.13414 31.3719 8.04872 31.1989 8.01552C31.026 7.98232 30.8482 8.0026 30.6848 8.07418L8.9714 17.5915C8.66367 17.7255 8.40314 17.9679 8.22904 18.2821C8.05493 18.5963 7.97667 18.9653 8.00604 19.3337C8.03541 19.702 8.17082 20.0497 8.39188 20.3244C8.61294 20.599 8.90769 20.7859 9.23175 20.8567L14.8578 22.0939V29.12C14.8567 29.5027 14.9582 29.8769 15.1493 30.1942C15.3403 30.5115 15.612 30.7573 15.9292 30.8996C16.2459 31.0444 16.5942 31.0792 16.9288 30.9994C17.2634 30.9196 17.5688 30.7288 17.8053 30.452L20.5181 27.3008L24.822 31.52C25.1325 31.8285 25.533 31.9992 25.9481 32C26.1299 31.9998 26.3107 31.9679 26.4838 31.9052C26.7666 31.8047 27.0209 31.623 27.2215 31.3781C27.4221 31.1332 27.5619 30.8338 27.627 30.5096L31.9759 9.31979C32.0148 9.12869 32.0065 8.92933 31.952 8.74309C31.8974 8.55685 31.7986 8.39074 31.6662 8.26258ZM25.1156 12.5826L15.5167 20.2819L10.2025 19.1143L25.1156 12.5826ZM16.5721 29.12V23.4223L19.2281 26.0311L16.5721 29.12ZM25.9502 30.08L17.0917 21.3799L29.8416 11.145L25.9502 30.08Z" fill="white"/>
  </symbol>
  <symbol id="whatsapp" viewBox="0 0 40 40" fill="none" xmlns="http://www.w3.org/2000/svg">
    <rect width="40" height="40" rx="20" fill="#48C857"/>
    <path d="M26.879 21.9431L23.1864 20.0969C23.041 20.0245 22.8791 19.9917 22.7171 20.0018C22.555 20.012 22.3984 20.0647 22.2632 20.1546L20.5681 21.2854C19.7899 20.8576 19.1495 20.2173 18.7217 19.4392L19.8526 17.7442C19.9426 17.609 19.9953 17.4525 20.0054 17.2904C20.0155 17.1284 19.9827 16.9665 19.9103 16.8212L18.064 13.1288C17.9874 12.9743 17.8692 12.8443 17.7225 12.7536C17.5759 12.6628 17.4067 12.6149 17.2343 12.6154C16.0101 12.6154 14.836 13.1016 13.9704 13.9672C13.1048 14.8328 12.6184 16.0067 12.6184 17.2308C12.6215 19.9228 13.6924 22.5037 15.5961 24.4072C17.4998 26.3108 20.081 27.3816 22.7733 27.3846C23.3794 27.3846 23.9797 27.2652 24.5397 27.0333C25.0997 26.8013 25.6085 26.4614 26.0372 26.0328C26.4658 25.6042 26.8058 25.0954 27.0377 24.5355C27.2697 23.9755 27.3891 23.3753 27.3891 22.7692C27.3892 22.5977 27.3416 22.4296 27.2515 22.2837C27.1614 22.1378 27.0324 22.0198 26.879 21.9431ZM22.7733 25.5385C20.5705 25.536 18.4586 24.66 16.901 23.1025C15.3434 21.545 14.4672 19.4334 14.4648 17.2308C14.4646 16.5905 14.6863 15.97 15.0921 15.4748C15.498 14.9796 16.0629 14.6403 16.6908 14.5146L18.0155 17.1685L16.8881 18.8462C16.8038 18.9725 16.7521 19.1177 16.7374 19.2689C16.7227 19.42 16.7455 19.5725 16.8038 19.7127C17.4644 21.2824 18.7132 22.5311 20.283 23.1915C20.4237 23.2525 20.5773 23.2774 20.73 23.2641C20.8827 23.2508 21.0297 23.1997 21.1577 23.1154L22.8437 21.9915L25.4978 23.3162C25.3711 23.9447 25.0303 24.5098 24.5334 24.9151C24.0366 25.3203 23.4145 25.5407 22.7733 25.5385ZM20.0038 8C17.9318 7.99955 15.895 8.53549 14.0916 9.55565C12.2883 10.5758 10.7798 12.0454 9.71298 13.8215C8.64618 15.5976 8.05741 17.6195 8.00399 19.6906C7.95057 21.7617 8.43431 23.8113 9.40814 25.64L8.0984 29.5688C7.98991 29.8941 7.97416 30.2432 8.05293 30.5769C8.1317 30.9107 8.30186 31.2159 8.54435 31.4583C8.78683 31.7008 9.09206 31.8709 9.42583 31.9497C9.75959 32.0285 10.1087 32.0127 10.434 31.9042L14.3632 30.5946C15.9727 31.4506 17.7561 31.9287 19.578 31.9926C21.3999 32.0565 23.2124 31.7046 24.8779 30.9635C26.5435 30.2225 28.0183 29.1117 29.1904 27.7156C30.3626 26.3195 31.2012 24.6748 31.6427 22.9062C32.0842 21.1377 32.117 19.2918 31.7385 17.5087C31.36 15.7255 30.5803 14.0521 29.4584 12.6153C28.3365 11.1785 26.9021 10.0161 25.2639 9.21645C23.6257 8.41676 21.8268 8.00075 20.0038 8ZM20.0038 30.1538C18.2186 30.1551 16.4647 29.685 14.9194 28.7912C14.8063 28.7255 14.6805 28.6847 14.5504 28.6714C14.4203 28.6581 14.2888 28.6725 14.1647 28.7138L9.84895 30.1538L11.2879 25.8385C11.3294 25.7145 11.3441 25.5831 11.3309 25.453C11.3178 25.3229 11.2772 25.1971 11.2118 25.0838C10.0924 23.1487 9.64298 20.8984 9.93322 18.6818C10.2235 16.4652 11.2372 14.4064 12.817 12.8247C14.3969 11.243 16.4547 10.2268 18.6711 9.93376C20.8875 9.64074 23.1386 10.0873 25.0753 11.2041C27.012 12.3209 28.526 14.0456 29.3824 16.1106C30.2388 18.1755 30.3897 20.4654 29.8118 22.6249C29.2338 24.7844 27.9593 26.6928 26.1859 28.0541C24.4126 29.4154 22.2395 30.1535 20.0038 30.1538Z" fill="white"/>
  </symbol>
  <symbol id="star" viewBox="0 0 60 60" fill="none" xmlns="http://www.w3.org/2000/svg">
    <path d="M53.7893 26.4841L38.9205 21.0794L33.5159 6.21068C33.2495 5.49302 32.7698 4.87407 32.1414 4.43699C31.5129 3.9999 30.7657 3.76562 30.0002 3.76562C29.2347 3.76562 28.4875 3.9999 27.8591 4.43699C27.2306 4.87407 26.751 5.49302 26.4846 6.21068L21.0799 21.0794L6.21117 26.4841C5.4935 26.7505 4.87456 27.2301 4.43747 27.8586C4.00039 28.4871 3.76611 29.2342 3.76611 29.9997C3.76611 30.7652 4.00039 31.5124 4.43747 32.1409C4.87456 32.7693 5.4935 33.249 6.21117 33.5154L21.0799 38.9224L26.4846 53.7888C26.751 54.5065 27.2306 55.1254 27.8591 55.5625C28.4875 55.9996 29.2347 56.2339 30.0002 56.2339C30.7657 56.2339 31.5129 55.9996 32.1414 55.5625C32.7698 55.1254 33.2495 54.5065 33.5159 53.7888L38.9229 38.9201L53.7893 33.5154C54.507 33.249 55.1259 32.7693 55.563 32.1409C56.0001 31.5124 56.2343 30.7652 56.2343 29.9997C56.2343 29.2342 56.0001 28.4871 55.563 27.8586C55.1259 27.2301 54.507 26.7505 53.7893 26.4841ZM36.8159 35.6951C36.5587 35.7887 36.3251 35.9375 36.1316 36.1311C35.938 36.3246 35.7892 36.5582 35.6955 36.8154L30.0002 52.4763L24.3049 36.8154C24.2113 36.5582 24.0624 36.3246 23.8689 36.1311C23.6754 35.9375 23.4418 35.7887 23.1846 35.6951L7.52367 29.9997L23.1846 24.3044C23.4418 24.2108 23.6754 24.062 23.8689 23.8684C24.0624 23.6749 24.2113 23.4413 24.3049 23.1841L30.0002 7.52318L35.6955 23.1841C35.7892 23.4413 35.938 23.6749 36.1316 23.8684C36.3251 24.062 36.5587 24.2108 36.8159 24.3044L52.4768 29.9997L36.8159 35.6951Z" fill="var(--highlight)"/>
  </symbol>
  <symbol id="x" viewBox="0 0 24 24" fill="none" xmlns="http://www.w3.org/2000/svg">
    <path d="M19.2806 18.2198C19.3502 18.2895 19.4055 18.3722 19.4432 18.4632C19.4809 18.5543 19.5003 18.6519 19.5003 18.7504C19.5003 18.849 19.4809 18.9465 19.4432 19.0376C19.4055 19.1286 19.3502 19.2114 19.2806 19.281C19.2109 19.3507 19.1281 19.406 19.0371 19.4437C18.9461 19.4814 18.8485 19.5008 18.7499 19.5008C18.6514 19.5008 18.5538 19.4814 18.4628 19.4437C18.3717 19.406 18.289 19.3507 18.2193 19.281L11.9999 13.0607L5.78055 19.281C5.63982 19.4218 5.44895 19.5008 5.24993 19.5008C5.05091 19.5008 4.86003 19.4218 4.7193 19.281C4.57857 19.1403 4.49951 18.9494 4.49951 18.7504C4.49951 18.5514 4.57857 18.3605 4.7193 18.2198L10.9396 12.0004L4.7193 5.78104C4.57857 5.64031 4.49951 5.44944 4.49951 5.25042C4.49951 5.05139 4.57857 4.86052 4.7193 4.71979C4.86003 4.57906 5.05091 4.5 5.24993 4.5C5.44895 4.5 5.63982 4.57906 5.78055 4.71979L11.9999 10.9401L18.2193 4.71979C18.36 4.57906 18.5509 4.5 18.7499 4.5C18.949 4.5 19.1398 4.57906 19.2806 4.71979C19.4213 4.86052 19.5003 5.05139 19.5003 5.25042C19.5003 5.44944 19.4213 5.64031 19.2806 5.78104L13.0602 12.0004L19.2806 18.2198Z" fill="white"/>
  </symbol>
</svg>